<svg width="61" height="60" viewBox="0 0 61 60" fill="none" xmlns="http://www.w3.org/2000/svg">
<path d="M41.6109 5.39751C41.6956 5.43314 41.7804 5.46877 41.8677 5.50548C42.5377 5.80409 43.1652 6.1993 43.5591 6.83305C43.6874 7.44569 43.6991 7.98873 43.4932 8.58354C43.1593 9.07335 42.7923 9.41776 42.2188 9.60893C41.3907 9.71177 40.8109 9.50117 40.0801 9.13286C38.1722 8.22696 36.2119 7.62693 34.1329 7.26518C33.9903 7.23875 33.8477 7.21231 33.7007 7.18507C28.1434 6.31673 22.0898 7.79713 17.4785 11.0019C12.0852 14.9556 8.70211 20.3946 7.67779 27.0282C7.03228 31.7087 7.98085 36.6392 10.2266 40.7808C10.2686 40.86 10.3106 40.9391 10.3539 41.0207C10.9316 42.1071 11.5655 43.0986 12.336 44.0621C12.4108 44.1607 12.4855 44.2593 12.5626 44.361C16.2489 49.0964 21.8529 52.0366 27.7617 52.8076C32.1736 53.2939 36.5866 52.5737 40.5782 50.6246C40.6617 50.5842 40.7452 50.5439 40.8312 50.5024C44.7328 48.5978 47.9447 45.5313 50.1876 41.8355C50.2315 41.7638 50.2755 41.6921 50.3208 41.6182C52.1479 38.6102 53.2378 35.0672 53.4116 31.5537C53.4161 31.4648 53.4206 31.3759 53.4252 31.2843C53.4466 30.8414 53.4638 30.3988 53.4751 29.9556C53.5047 29.0726 53.5369 28.3236 54.1719 27.6558C54.7622 27.2061 55.4502 27.2085 56.1641 27.3042C56.6858 27.5603 57.0066 27.8831 57.336 28.3589C58.6635 32.3413 56.4289 38.4865 54.6779 42.0525C53.5167 44.3271 52.099 46.3501 50.3551 48.2085C50.1269 48.4543 49.9097 48.703 49.6968 48.962C49.3163 49.4102 48.8782 49.7775 48.4297 50.1558C48.265 50.3008 48.265 50.3008 48.097 50.4488C42.7147 55.1594 35.6013 57.3608 28.5019 56.9202C26.2437 56.7453 23.9608 56.313 21.8282 55.5464C21.6947 55.5006 21.6947 55.5006 21.5584 55.4538C18.2114 54.3006 15.1989 52.5235 12.5704 50.1558C12.5068 50.0993 12.4433 50.0429 12.3779 49.9847C7.08584 45.2722 3.99853 38.5707 3.54693 31.523C3.22792 24.0097 5.80512 17.0196 10.8581 11.4841C15.2274 6.77389 21.2148 3.91186 27.5704 3.16362C27.6961 3.14821 27.8217 3.1328 27.9512 3.11693C32.6555 2.65401 37.2924 3.54385 41.6109 5.39751Z" fill="#282021"/>
<path d="M56.4275 9.85883C56.8764 10.1649 57.207 10.5242 57.4529 11.0161C57.4808 11.2962 57.4808 11.2962 57.4895 11.6313C57.4939 11.7407 57.4983 11.85 57.5028 11.9627C57.3741 12.8459 56.5485 13.4761 55.9459 14.0735C55.8448 14.1746 55.7436 14.2757 55.6394 14.3798C55.4257 14.5931 55.2118 14.8062 54.9976 15.0189C54.6718 15.3425 54.347 15.667 54.0224 15.9917C53.814 16.1995 53.6056 16.4073 53.3971 16.615C53.3009 16.7111 53.2046 16.8071 53.1055 16.9062C52.694 17.3143 52.2815 17.7147 51.8413 18.0917C51.2748 18.5799 50.7514 19.1106 50.2252 19.6411C50.0401 19.8278 49.8546 20.0141 49.669 20.2002C49.275 20.5955 48.8815 20.9913 48.488 21.3871C48.0315 21.8465 47.5747 22.3056 47.1175 22.7643C46.9363 22.9462 46.7554 23.1285 46.5746 23.3109C46.04 23.8482 45.4989 24.368 44.9232 24.8612C44.4444 25.2882 43.9971 25.7483 43.5455 26.2036C43.3604 26.3903 43.1749 26.5766 42.9893 26.7627C42.5953 27.158 42.2018 27.5538 41.8084 27.9496C41.3518 28.409 40.895 28.8681 40.4378 29.3268C40.2566 29.5087 40.0757 29.691 39.8949 29.8734C39.3598 30.4112 38.8182 30.9316 38.2419 31.4252C37.7712 31.8448 37.3314 32.2968 36.8876 32.7444C36.7064 32.9272 36.5248 33.1095 36.3431 33.2917C35.9575 33.6787 35.5723 34.0661 35.1873 34.4536C34.7404 34.9032 34.2933 35.3527 33.8457 35.8016C33.6684 35.9797 33.4915 36.1581 33.3145 36.3365C32.7091 36.9452 32.093 37.532 31.4373 38.0864C31.2741 38.2278 31.2741 38.2278 31.1077 38.372C30.5663 38.6374 30.0365 38.6681 29.4451 38.5551C28.8952 38.2243 28.4393 37.8324 27.9761 37.3938C27.9014 37.3236 27.8268 37.2533 27.7499 37.181C26.6335 36.1229 25.5555 35.025 24.4719 33.9335C24.0379 33.4963 23.6034 33.0595 23.1687 32.623C23.0714 32.5247 22.9741 32.4264 22.8738 32.3251C22.3858 31.8351 21.889 31.3673 21.3648 30.9165C20.888 30.4935 20.4413 30.0392 19.9904 29.5889C19.8333 29.4323 19.8333 29.4323 19.673 29.2726C19.4532 29.0534 19.2336 28.8341 19.0141 28.6146C18.7334 28.3339 18.4519 28.054 18.1701 27.7742C17.8999 27.5056 17.6305 27.2362 17.361 26.9668C17.2601 26.8667 17.1591 26.7666 17.0551 26.6635C16.962 26.57 16.8688 26.4765 16.7729 26.3801C16.6908 26.2983 16.6088 26.2164 16.5244 26.1321C16.0791 25.6237 16.0409 25.2046 16.0564 24.5475C16.1125 23.9937 16.3178 23.6683 16.7156 23.2914C17.2924 22.9069 17.7309 22.781 18.4294 22.852C19.2444 23.1849 19.7662 23.6589 20.374 24.2862C20.5131 24.4266 20.5131 24.4266 20.6549 24.5699C20.9494 24.8678 21.2422 25.1672 21.5349 25.4667C21.8279 25.7648 22.1213 26.0624 22.4149 26.3598C22.5969 26.5443 22.7785 26.7293 22.9596 26.9147C23.3467 27.3088 23.7358 27.6917 24.1552 28.0514C24.7712 28.5814 25.3383 29.1604 25.9111 29.7363C26.0306 29.856 26.1501 29.9757 26.2697 30.0954C26.5813 30.4074 26.8925 30.7198 27.2036 31.0322C27.5224 31.3522 27.8415 31.6718 28.1606 31.9915C28.7844 32.6165 29.4078 33.242 30.031 33.8676C30.7433 33.2832 31.3898 32.6399 32.0379 31.9867C32.2354 31.7877 32.4332 31.5892 32.6311 31.3907C33.1224 30.8979 33.613 30.4044 34.1037 29.9109C34.5193 29.493 34.9352 29.0753 35.3513 28.6579C35.5447 28.4638 35.7378 28.2693 35.9308 28.0747C36.9053 27.0955 36.9053 27.0955 37.4125 26.6619C38.0073 26.1532 38.5524 25.5937 39.1033 25.0385C39.3042 24.8361 39.5054 24.6341 39.7068 24.4322C40.1342 24.0034 40.5612 23.5742 40.988 23.145C41.4833 22.6469 41.9788 22.149 42.4748 21.6517C42.6716 21.4541 42.868 21.2563 43.0644 21.0583C43.6223 20.4978 44.1847 19.9519 44.7861 19.4377C45.2879 18.9899 45.7564 18.5062 46.23 18.029C46.427 17.8305 46.6243 17.6324 46.8217 17.4344C47.2408 17.0141 47.6594 16.5932 48.0779 16.1723C48.5635 15.6839 49.0493 15.1957 49.5356 14.7081C49.7285 14.5144 49.921 14.3204 50.1135 14.1264C50.6819 13.5553 51.255 12.9975 51.8679 12.4736C52.1311 12.2454 52.374 12.0006 52.6161 11.7503C52.7104 11.6541 52.8047 11.5579 52.9018 11.4587C53.0954 11.2599 53.2886 11.0606 53.4813 10.8609C54.3722 9.9542 55.1494 9.41641 56.4275 9.85883Z" fill="#282021"/>
</svg>
