<svg width="61" height="46" viewBox="0 0 61 46" fill="none" xmlns="http://www.w3.org/2000/svg">
<path d="M56.9477 2.64638C58.8583 4.27422 60.1534 6.43689 60.5 8.93789C60.6239 10.6187 60.5917 12.2611 60.0312 13.8598C59.9888 13.9839 59.9463 14.1081 59.9026 14.236C59.337 15.7276 58.2534 17.3748 56.9111 18.2877C56.606 18.5233 56.606 18.5233 56.5598 18.8725C56.56 18.9985 56.5601 19.1244 56.5602 19.2542C56.559 19.3991 56.5577 19.544 56.5564 19.6932C56.5579 19.8535 56.5595 20.0137 56.5611 20.174C56.5607 20.343 56.56 20.5121 56.5591 20.6811C56.5576 21.0451 56.5581 21.409 56.5599 21.773C56.5627 22.3493 56.5614 22.9256 56.5594 23.5019C56.5566 24.5183 56.5573 25.5347 56.5587 26.551C56.5609 28.0786 56.5603 29.6062 56.5564 31.1338C56.555 31.7058 56.5555 32.2778 56.5575 32.8498C56.5585 33.2071 56.558 33.5644 56.5571 33.9216C56.557 34.0863 56.5575 34.251 56.5587 34.4156C56.5691 35.9594 56.366 37.0828 55.2618 38.2023C54.7438 38.676 54.1937 39.0551 53.4687 39.0551C53.4712 39.1554 53.4736 39.2558 53.4762 39.3592C53.4842 39.737 53.4901 40.1148 53.4945 40.4927C53.4968 40.6553 53.5 40.8178 53.5041 40.9803C53.534 42.197 53.4765 43.3251 52.5971 44.2553C52.4601 44.3989 52.3212 44.5408 52.1797 44.6801C52.0926 44.7671 52.0056 44.8541 51.916 44.9437C50.6001 45.7811 49.2051 45.6843 47.7023 45.6782C47.4385 45.6789 47.1747 45.6797 46.9108 45.6807C46.1974 45.6828 45.4839 45.682 44.7704 45.6805C44.0232 45.6793 43.276 45.6805 42.5288 45.6812C41.1948 45.6821 39.8609 45.6806 38.527 45.6783C37.3176 45.6762 36.1082 45.6765 34.8988 45.6787C33.4926 45.6812 32.0864 45.6821 30.6801 45.6807C29.9364 45.68 29.1926 45.6799 28.4488 45.6815C27.7504 45.6828 27.052 45.6819 26.3535 45.6792C26.0969 45.6785 25.8403 45.6787 25.5837 45.6798C25.2342 45.681 24.8847 45.6794 24.5352 45.6771C24.433 45.6781 24.3309 45.6792 24.2256 45.6803C23.5417 45.6713 23.5417 45.6713 23.1746 45.401C22.946 45.0709 22.891 44.847 22.8828 44.4457C23.1324 43.9107 23.1324 43.9107 23.4687 43.7426C23.8097 43.7299 24.1479 43.7244 24.489 43.724C24.5959 43.7235 24.7028 43.7229 24.813 43.7223C25.1734 43.7205 25.5338 43.7195 25.8942 43.7185C26.1517 43.7174 26.4092 43.7162 26.6667 43.715C27.3676 43.7118 28.0685 43.7094 28.7695 43.707C29.5013 43.7045 30.2331 43.7013 30.9649 43.6981C32.1938 43.6929 33.4226 43.6881 34.6515 43.6837C35.9174 43.6791 37.1834 43.6742 38.4493 43.669C38.5273 43.6687 38.6053 43.6684 38.6856 43.668C39.0769 43.6664 39.4682 43.6648 39.8595 43.6632C43.1068 43.6499 46.3542 43.6374 49.6015 43.6254C49.2856 43.4208 48.9697 43.2163 48.6538 43.0118C48.5653 42.9544 48.4767 42.8971 48.3855 42.838C47.519 42.2772 46.6492 41.7218 45.7783 41.1679C45.6608 41.0929 45.5432 41.0179 45.4221 40.9406C45.2509 40.8337 45.2509 40.8337 45.0762 40.7247C44.8074 40.5521 44.5603 40.3677 44.3148 40.1635C43.0412 39.1441 41.8839 39.1214 40.2993 39.1378C40.0389 39.1362 39.7784 39.1341 39.518 39.1316C38.8153 39.1263 38.1128 39.1283 37.4101 39.132C36.6718 39.135 35.9335 39.1322 35.1953 39.1304C33.8765 39.1281 32.5578 39.1318 31.2391 39.1377C30.0472 39.143 28.8554 39.1421 27.6635 39.1367C26.2744 39.1304 24.8853 39.1281 23.4962 39.1315C22.7627 39.1333 22.0293 39.1336 21.2958 39.1297C20.6058 39.1263 19.916 39.1287 19.2259 39.1355C18.9741 39.137 18.7222 39.1366 18.4703 39.134C16.8638 39.1189 15.7978 39.3281 14.512 40.3214C14.2525 40.5188 13.9786 40.6909 13.7023 40.8637C13.5226 40.9809 13.343 41.0982 13.1635 41.2157C12.9658 41.3447 12.768 41.4736 12.5703 41.6025C12.4731 41.6659 12.376 41.7293 12.2759 41.7946C11.8106 42.0981 11.3446 42.4005 10.8784 42.7025C10.7568 42.7815 10.7568 42.7815 10.6328 42.862C10.5569 42.9112 10.481 42.9604 10.4028 43.0111C10.3373 43.0535 10.2718 43.096 10.2044 43.1398C9.94098 43.3062 9.67354 43.4654 9.40622 43.6254C9.54025 43.6258 9.67427 43.6262 9.81236 43.6267C11.0746 43.631 12.3368 43.6378 13.599 43.6469C14.248 43.6516 14.8969 43.6553 15.5459 43.6571C16.172 43.6589 16.7981 43.6629 17.4242 43.6685C17.6632 43.6703 17.9022 43.6712 18.1413 43.6713C18.4758 43.6716 18.8101 43.6748 19.1446 43.6786C19.2437 43.678 19.3428 43.6774 19.445 43.6768C20.1149 43.6888 20.1149 43.6888 20.4802 43.9594C20.7107 44.2892 20.7652 44.5123 20.7734 44.9144C20.5237 45.4494 20.5237 45.4494 20.1875 45.6176C20.0271 45.6293 19.8661 45.6339 19.7053 45.6348C19.6043 45.6357 19.5033 45.6365 19.3992 45.6374C19.2881 45.6377 19.177 45.638 19.0625 45.6383C18.9457 45.6391 18.8289 45.6399 18.7085 45.6406C18.3203 45.643 17.9321 45.6443 17.5439 45.6455C17.4112 45.646 17.2786 45.6465 17.142 45.6469C16.4391 45.6494 15.7363 45.6511 15.0335 45.6522C14.3093 45.6535 13.5851 45.6575 12.8609 45.6621C12.3028 45.6652 11.7447 45.6662 11.1866 45.6666C10.9198 45.6672 10.653 45.6685 10.3862 45.6707C10.0112 45.6736 9.63634 45.6735 9.26137 45.6726C9.09793 45.6749 9.09793 45.6749 8.93119 45.6772C7.67906 45.6674 6.69191 45.253 5.79309 44.3885C5.0625 43.542 4.82012 42.6828 4.82446 41.5874C4.82463 41.5049 4.8248 41.4223 4.82497 41.3372C4.82562 41.0745 4.82709 40.8119 4.82858 40.5492C4.82917 40.3707 4.82971 40.1922 4.83018 40.0136C4.83147 39.5769 4.8335 39.1402 4.83591 38.7035C4.72538 38.706 4.61485 38.7084 4.50097 38.7109C4.08927 38.719 3.67766 38.7248 3.26592 38.7293C3.08803 38.7316 2.91014 38.7348 2.73228 38.7389C2.47598 38.7446 2.2198 38.7472 1.96344 38.7493C1.8094 38.7517 1.65537 38.7542 1.49666 38.7567C1.0223 38.6953 0.832346 38.5718 0.499969 38.2348C0.42627 38.0004 0.42627 38.0004 0.434052 37.766C0.4339 37.6887 0.433749 37.6113 0.433594 37.5316C0.532439 37.1826 0.682759 37.0511 0.968719 36.8285C1.28256 36.7876 1.5479 36.7735 1.86044 36.7827C1.97377 36.7834 1.97377 36.7834 2.08938 36.7842C2.37016 36.7866 2.65089 36.7932 2.93161 36.7992C3.56003 36.8089 4.18845 36.8186 4.83591 36.8285C4.83591 34.6242 4.83591 32.4199 4.83591 30.1488C3.58428 30.1674 3.58428 30.1674 2.33274 30.1911C2.17531 30.1924 2.01788 30.1936 1.86044 30.1946C1.77934 30.197 1.69824 30.1994 1.61468 30.2019C1.21059 30.2022 1.00606 30.1779 0.68276 29.9262C0.485948 29.6612 0.433414 29.5375 0.434052 29.2113C0.431483 29.134 0.428915 29.0566 0.42627 28.977C0.543612 28.6038 0.762416 28.4836 1.08591 28.2738C1.49666 28.2206 1.49666 28.2206 1.96344 28.2281C2.11425 28.2292 2.26505 28.2304 2.42043 28.2316C2.61087 28.2359 2.80132 28.2401 2.99753 28.2445C3.60419 28.2542 4.21086 28.2639 4.83591 28.2738C4.83591 26.4176 4.83591 24.5613 4.83591 22.6488C3.62809 22.672 3.62809 22.672 2.42043 22.7016C2.19422 22.7038 2.19422 22.7038 1.96344 22.706C1.8094 22.7091 1.65537 22.7122 1.49666 22.7153C0.983423 22.6322 0.815495 22.4677 0.499969 22.0629C0.426727 21.7113 0.426727 21.7113 0.499969 21.3598C0.815495 20.955 0.983423 20.7904 1.49666 20.7073C1.6507 20.7104 1.80474 20.7134 1.96344 20.7166C2.08705 20.7178 2.08705 20.7178 2.21315 20.7191C2.47474 20.7224 2.73603 20.7297 2.99753 20.7372C3.17552 20.7401 3.35351 20.7428 3.53151 20.7452C3.96641 20.7517 4.40113 20.7618 4.83591 20.7738C4.83345 20.6457 4.831 20.5175 4.82847 20.3855C4.8199 19.9044 4.81457 19.4232 4.81016 18.9421C4.80782 18.7349 4.80463 18.5277 4.80054 18.3205C4.77315 16.8957 4.78908 15.5723 5.71024 14.394C6.48316 13.6112 7.46677 13.1427 8.56393 13.1223C8.80566 13.1246 9.04737 13.1288 9.28903 13.1347C9.41336 13.1363 9.53768 13.1378 9.66577 13.1395C9.96994 13.1436 10.274 13.1493 10.5781 13.1566C10.5744 13.0177 10.5744 13.0177 10.5707 12.8759C10.5608 12.4495 10.5548 12.0231 10.5488 11.5966C10.5449 11.4509 10.5409 11.3052 10.5369 11.1551C10.5219 9.728 10.8081 8.70726 11.8072 7.66851C12.6889 6.90744 13.5859 6.69382 14.7207 6.69408C14.8203 6.69365 14.92 6.69322 15.0226 6.69277C15.3569 6.69148 15.6912 6.69103 16.0255 6.69058C16.2649 6.68985 16.5044 6.68907 16.7438 6.68825C17.3947 6.68621 18.0455 6.68497 18.6963 6.68401C19.1026 6.6834 19.509 6.68269 19.9153 6.68195C21.186 6.67972 22.4567 6.67805 23.7274 6.67708C25.1956 6.67593 26.6638 6.67284 28.1319 6.66811C29.2661 6.66458 30.4003 6.66284 31.5344 6.66246C32.2122 6.66218 32.89 6.66112 33.5678 6.65818C34.2049 6.65546 34.842 6.65495 35.4792 6.65616C35.7133 6.65622 35.9474 6.65547 36.1816 6.65387C36.5006 6.65181 36.8195 6.65262 37.1386 6.65417C37.2317 6.65288 37.3249 6.6516 37.4209 6.65027C37.8367 6.65516 38.0703 6.67562 38.4058 6.93142C38.62 7.22712 38.6942 7.40006 38.7031 7.76601C38.5131 8.17457 38.3791 8.33355 38 8.58632C37.6797 8.60892 37.3715 8.61771 37.0512 8.6158C36.9534 8.61615 36.8555 8.6165 36.7548 8.61686C36.4258 8.61776 36.0968 8.61699 35.7678 8.61625C35.5324 8.61657 35.297 8.617 35.0616 8.61754C34.554 8.61849 34.0464 8.61874 33.5388 8.61848C32.7362 8.61815 31.9336 8.61983 31.1309 8.62188C28.8483 8.62739 26.5657 8.63019 24.283 8.63096C23.0228 8.6314 21.7627 8.63351 20.5025 8.63741C19.7047 8.63978 18.9069 8.64006 18.1091 8.63879C17.6124 8.63848 17.1157 8.64012 16.619 8.64231C16.3888 8.64294 16.1586 8.64276 15.9284 8.64172C15.6138 8.64042 15.2994 8.64199 14.9848 8.64427C14.894 8.6432 14.8031 8.64213 14.7095 8.64103C13.9874 8.65119 13.4646 8.85571 12.9479 9.38604C12.9031 9.45809 12.8582 9.53015 12.812 9.60439C12.765 9.67494 12.718 9.74548 12.6696 9.81817C12.5131 10.2777 12.4528 10.688 12.5703 11.1644C12.8262 11.4811 13.1428 11.6752 13.4858 11.8895C13.6809 12.0206 13.876 12.1518 14.0708 12.2832C14.1719 12.3498 14.2729 12.4163 14.377 12.4849C14.8583 12.8077 15.3212 13.1544 15.7856 13.5009C15.972 13.6386 16.1585 13.7762 16.345 13.9138C16.6257 14.1212 16.9063 14.3286 17.1869 14.536C18.1837 15.2725 19.1818 16.0067 20.1875 16.7309C21.1934 17.4552 22.1916 18.1896 23.1885 18.9262C23.6527 19.2691 24.1174 19.6113 24.582 19.9535C25.1403 20.3647 25.6984 20.7761 26.256 21.1881C27.245 21.9185 28.2372 22.6441 29.2351 23.3623C29.9947 23.9097 30.7487 24.4643 31.5013 25.0212C31.6729 25.1481 31.8449 25.2745 32.0172 25.4004C32.1759 25.5179 32.3329 25.6378 32.4879 25.7602C32.8547 26.0733 32.8547 26.0733 33.3072 26.1405C33.5774 26.0354 33.7741 25.9052 34.0055 25.7305C34.0936 25.6647 34.1817 25.5989 34.2724 25.5311C34.3665 25.4598 34.4606 25.3884 34.5576 25.3148C34.7592 25.164 34.961 25.0132 35.1628 24.8626C35.2649 24.7861 35.3671 24.7095 35.4723 24.6307C35.9206 24.2971 36.3741 23.9708 36.8281 23.6449C38.0253 22.7831 39.2115 21.9064 40.3976 21.0294C40.6848 20.8172 40.972 20.605 41.2592 20.393C41.3511 20.3251 41.4429 20.2573 41.5375 20.1873C41.9678 19.8701 42.3996 19.5553 42.8362 19.2467C42.9129 19.1925 42.9896 19.1383 43.0686 19.0825C43.2108 18.9825 43.3534 18.8829 43.4963 18.7838C43.8524 18.5426 43.8524 18.5426 44.0937 18.1957C44.0239 18.1637 43.9541 18.1317 43.8822 18.0987C42.3558 17.2838 41.2896 15.0949 40.7873 13.5347C40.006 10.8182 40.2702 7.91934 41.6359 5.42964C43.0875 2.95097 45.4189 1.31892 48.1738 0.581412C51.2958 -0.0966326 54.4438 0.671787 56.9477 2.64638ZM44.1303 5.19521C42.6724 7.06142 42.0162 9.28682 42.292 11.6478C42.6571 13.8164 43.8528 15.8217 45.6172 17.141C47.5176 18.3972 49.691 18.9922 51.9659 18.5885C54.1721 18.1211 56.0624 16.9081 57.3359 15.0316C58.5946 12.9333 59.021 10.6339 58.4419 8.22744C57.7142 5.91474 56.1871 4.17869 54.0766 3.03457C50.5808 1.41971 46.6725 2.30169 44.1303 5.19521ZM12.4531 13.5082C12.4531 20.1211 12.4531 26.734 12.4531 33.5473C13.2912 33.0857 13.2912 33.0857 14.0974 32.5855C14.2521 32.4838 14.2521 32.4838 14.4099 32.3801C14.5182 32.3085 14.6266 32.2368 14.7383 32.163C15.7181 31.5193 16.7016 30.882 17.6899 30.2514C18.8666 29.5001 20.0385 28.7419 21.2081 27.9798C21.6364 27.701 22.0655 27.4234 22.4946 27.1459C22.5751 27.0938 22.6555 27.0418 22.7384 26.9881C23.1541 26.7193 23.57 26.4507 23.986 26.1823C24.4782 25.8647 24.9697 25.5461 25.4609 25.227C25.5341 25.1796 25.6072 25.1322 25.6826 25.0833C25.8826 24.9536 26.0819 24.823 26.2812 24.6923C26.3924 24.6196 26.5036 24.547 26.6181 24.4721C26.8794 24.3097 26.8794 24.3097 26.9843 24.0551C26.9321 24.0175 26.8799 23.98 26.826 23.9413C25.8005 23.2035 24.7777 22.4622 23.7617 21.7113C23.0421 21.1796 22.3199 20.652 21.5937 20.1293C20.5878 19.405 19.5896 18.6706 18.5927 17.9339C18.1285 17.5911 17.6638 17.2489 17.1992 16.9066C16.6315 16.4884 16.0638 16.07 15.4963 15.6515C15.0319 15.3089 14.5673 14.9667 14.1025 14.6247C13.948 14.5109 13.7935 14.3971 13.639 14.2832C13.4539 14.1467 13.2684 14.0105 13.083 13.8744C12.9848 13.8022 12.8866 13.73 12.7854 13.6556C12.5976 13.4972 12.5976 13.4972 12.4531 13.5082ZM7.22131 15.6876C6.85653 16.1451 6.69608 16.4608 6.69681 17.0422C6.69665 17.1413 6.69649 17.2404 6.69633 17.3425C6.69675 17.4508 6.69717 17.5591 6.6976 17.6707C6.69759 17.7851 6.69757 17.8994 6.69755 18.0173C6.69763 18.3958 6.69855 18.7743 6.69946 19.1529C6.69968 19.4151 6.69985 19.6774 6.69997 19.9396C6.70041 20.6303 6.70156 21.3209 6.70286 22.0116C6.70406 22.7162 6.70459 23.4208 6.70518 24.1253C6.70644 25.5082 6.7085 26.891 6.71091 28.2738C7.98708 28.2738 9.26325 28.2738 10.5781 28.2738C10.5781 23.9039 10.5781 19.534 10.5781 15.0316C8.5261 14.8236 8.5261 14.8236 7.22131 15.6876ZM45.2912 19.786C45.1594 19.8844 45.1594 19.8844 45.0248 19.9848C44.9303 20.0566 44.8357 20.1285 44.7383 20.2025C44.5367 20.3535 44.3351 20.5044 44.1335 20.6553C44.03 20.7332 43.9266 20.811 43.8199 20.8913C43.424 21.1882 43.0254 21.4815 42.6265 21.7743C42.348 21.9788 42.07 22.184 41.7921 22.3893C41.4719 22.6258 41.1509 22.8611 40.8289 23.0951C40.6989 23.1905 40.5689 23.2859 40.4389 23.3812C40.3285 23.4616 40.2181 23.542 40.1043 23.6248C40.0286 23.6894 39.9529 23.7541 39.875 23.8207C39.875 23.898 39.875 23.9754 39.875 24.0551C40.0828 24.2197 40.0828 24.2197 40.3565 24.3833C40.4608 24.4487 40.5651 24.5142 40.6725 24.5816C40.7864 24.652 40.9002 24.7223 41.0175 24.7948C41.2555 24.9439 41.4934 25.0932 41.7312 25.2425C41.8522 25.3182 41.9732 25.394 42.0978 25.472C42.6226 25.8024 43.1423 26.1404 43.6616 26.4794C43.856 26.606 44.0504 26.7327 44.2448 26.8593C44.3379 26.92 44.431 26.9807 44.5269 27.0432C45.7506 27.8405 46.9791 28.6301 48.2099 29.4164C49.1847 30.0392 50.1565 30.6662 51.125 31.2987C51.2352 31.3707 51.3455 31.4426 51.4591 31.5168C51.9789 31.8562 52.4982 32.1963 53.0169 32.5374C53.1992 32.6568 53.3816 32.7761 53.5639 32.8954C53.688 32.9775 53.688 32.9775 53.8146 33.0613C54.1958 33.3365 54.1958 33.3365 54.6406 33.4301C54.6406 28.9055 54.6406 24.3809 54.6406 19.7191C53.7965 19.9488 53.7965 19.9488 52.9533 20.1819C50.7183 20.7363 48.5052 20.4823 46.3958 19.6006C45.8982 19.4146 45.6978 19.4793 45.2912 19.786ZM37.4287 25.5932C37.3574 25.6442 37.2861 25.6953 37.2126 25.7479C36.771 26.0654 36.3331 26.3875 35.897 26.7124C35.7988 26.7854 35.7006 26.8584 35.5994 26.9337C35.406 27.0777 35.213 27.2222 35.0204 27.3673C33.669 28.3741 33.669 28.3741 32.8437 28.2738C31.9141 27.8568 31.0849 27.1077 30.2879 26.4818C29.7538 26.0647 29.207 25.6914 28.625 25.3441C26.9522 26.412 25.2827 27.4844 23.62 28.5679C22.9472 29.0057 22.2727 29.4411 21.5986 29.8769C21.3642 30.0285 21.1299 30.1804 20.8956 30.3324C20.039 30.8879 19.1805 31.4405 18.3201 31.9901C17.2041 32.703 16.0899 33.4183 14.9799 34.1405C14.8726 34.2102 14.7653 34.2799 14.6547 34.3517C13.9496 34.8115 13.257 35.287 12.5703 35.7738C12.6528 36.2753 12.7459 36.4716 13.1416 36.7992C13.2234 36.8687 13.3053 36.9382 13.3897 37.0098C13.7973 37.3048 14.1409 37.3121 14.6288 37.313C14.7653 37.3135 14.9018 37.314 15.0425 37.3146C15.1932 37.3146 15.3439 37.3145 15.4992 37.3145C15.6604 37.3149 15.8216 37.3153 15.9827 37.3158C16.4266 37.317 16.8705 37.3174 17.3144 37.3177C17.7927 37.3182 18.2711 37.3193 18.7494 37.3203C19.9051 37.3227 21.0608 37.3238 22.2164 37.3249C22.7605 37.3254 23.3045 37.326 23.8485 37.3266C25.6566 37.3286 27.4647 37.3303 29.2728 37.3312C29.7421 37.3314 30.2114 37.3316 30.6807 37.3319C30.7973 37.3319 30.914 37.332 31.0341 37.332C32.9243 37.333 34.8144 37.336 36.7045 37.3398C38.6444 37.3436 40.5843 37.3458 42.5242 37.3461C43.6136 37.3464 44.703 37.3474 45.7925 37.3504C46.7202 37.3529 47.6478 37.3539 48.5755 37.3528C49.0489 37.3522 49.5222 37.3524 49.9956 37.3547C50.429 37.3568 50.8624 37.3567 51.2959 37.3548C51.5267 37.3544 51.7576 37.3563 51.9885 37.3583C52.7816 37.3525 53.2974 37.3128 53.9375 36.8285C54.3127 36.4435 54.4346 36.1783 54.5234 35.6566C53.3811 34.915 52.236 34.178 51.0883 33.4447C49.8959 32.6825 48.7078 31.9138 47.5221 31.1413C46.4243 30.4263 45.3233 29.7165 44.2193 29.0112C42.2873 27.7769 40.3558 26.5406 38.4586 25.253C38.0286 24.9783 37.7949 25.329 37.4287 25.5932ZM6.71091 30.1488C6.70296 31.6952 6.69652 33.2415 6.69269 34.7879C6.69086 35.5059 6.68837 36.2239 6.68439 36.942C6.68056 37.6349 6.67846 38.3279 6.67755 39.0209C6.6769 39.2852 6.67563 39.5496 6.67374 39.8139C6.67118 40.1843 6.67083 40.5545 6.671 40.9249C6.66973 41.0341 6.66847 41.1434 6.66717 41.2559C6.67006 41.8636 6.73153 42.2742 7.06247 42.8051C7.79642 42.4104 8.49865 41.9825 9.19382 41.5233C10.0905 40.9356 10.9914 40.355 11.8965 39.7802C12.0102 39.7079 12.124 39.6356 12.2412 39.5612C12.5071 39.3924 12.773 39.2237 13.039 39.0551C12.8206 38.8257 12.6394 38.674 12.3652 38.5058C11.4457 37.8515 10.9849 37.0918 10.6953 36.0082C10.6333 35.5379 10.6244 35.0746 10.6239 34.6006C10.6219 34.4723 10.62 34.3441 10.618 34.212C10.6124 33.8073 10.6098 33.4027 10.6074 32.9979C10.6041 32.7215 10.6006 32.4451 10.5969 32.1687C10.5879 31.4954 10.5831 30.8222 10.5781 30.1488C9.30192 30.1488 8.02575 30.1488 6.71091 30.1488ZM46.4375 39.1723C46.8487 39.5835 47.2365 39.8657 47.7265 40.161C48.6145 40.7047 49.4872 41.2696 50.3557 41.8437C50.4508 41.9061 50.5459 41.9685 50.6439 42.0328C50.7283 42.0886 50.8127 42.1443 50.8997 42.2018C51.1365 42.3542 51.1365 42.3542 51.4765 42.4535C51.6283 42.3281 51.6283 42.3281 51.607 42.0326C51.6064 41.9006 51.6058 41.7687 51.6052 41.6327C51.6049 41.5046 51.6046 41.3764 51.6043 41.2443C51.6032 41.0802 51.6021 40.9161 51.601 40.747C51.5986 40.2273 51.5962 39.7077 51.5937 39.1723C49.8922 39.1723 48.1906 39.1723 46.4375 39.1723Z" fill="#282021"/>
</svg>
